<?xml version="1.0" encoding="utf-8"?>
<!-- Generator: Adobe Illustrator 26.2.1, SVG Export Plug-In . SVG Version: 6.00 Build 0)  -->
<svg version="1.1" id="Слой_1" xmlns="http://www.w3.org/2000/svg" xmlns:xlink="http://www.w3.org/1999/xlink" x="0px" y="0px"
	 viewBox="0 0 128 128" style="enable-background:new 0 0 128 128;" xml:space="preserve">
<style type="text/css">
	.st0{fill:#FFFFFF;}
</style>
<g transform="translate(0.000000,128.000000) scale(0.100000,-0.100000)">
	<g id="XMLID_00000051358090627350915610000007042207195627764890_">
		<g>
			<path class="st0" d="M908,1214c450-205,499-827,86-1103C882,36,784,7,640,7c-100-1-126,3-195,27C201,118,45,308,9,565
				c-12,91,0,193,34,289c81,220,276,380,511,417c58,9,170,3,236-13C815,1252,868,1232,908,1214z M1190,460c100,298-74,636-378,730
				c-75,23-198,32-269,20c-214-39-389-195-455-405c-30-96-30-233,0-330c63-202,231-358,434-401C808,13,1096,179,1190,460z"/>
			<path class="st0" d="M864,975c103,23,100,24,93-44c-14-132-73-225-223-348l-94-78v-65c-1-64-1-65-43-97l-42-33l-8,33
				c-19,73-23,77-57,64c-29-11-32-9-76,34c-41,42-45,49-34,68c18,34,6,49-44,56c-25,4-46,9-46,12s14,23,31,44c30,38,33,39,93,39h62
				l78,94C667,892,748,950,864,975z M704,745c36-55,123-11,100,52c-17,49-83,48-105-1C689,776,690,766,704,745z"/>
			<path class="st0" d="M311,457c21,25,28,13,13-22c-7-19-14-51-14-71v-37l39,6c22,3,54,12,70,20c38,19,41,5,4-21
				c-35-24-88-42-124-42c-27,0-29,3-29,40C270,370,290,431,311,457z"/>
		</g>
		<g>
		</g>
	</g>
</g>
</svg>
